<svg version="1" xmlns="http://www.w3.org/2000/svg" width="562.667" height="562.667" viewBox="0 0 422.000000 422.000000"><path d="M65.5 1.5C33.1 7.5 7.3 33.4 1.4 66c-2 11.1-2 278.9 0 290 6 32.8 31.8 58.6 64.6 64.6 11.1 2 278.9 2 290 0 32.8-6 58.6-31.8 64.6-64.6 2-11.1 2-278.9 0-290-6-32.8-31.8-58.6-64.6-64.6C345.2-.5 76-.5 65.5 1.5zm196 20.4c18.9 6.8 25 21.9 14 34.9-4.8 5.7-11.2 8.2-25.5 9.8-16.3 1.8-23.4 4-34.9 11-5.1 3-11.1 6.2-13.3 7-10.3 3.6-22.6.1-27.2-7.8-5.9-10.2-2.1-23.5 10.4-35.8 9.8-9.7 20.8-15.6 37.3-20.1 10-2.7 30.4-2.2 39.2 1zm86.4 53.6c12.8 6 25.6 24.6 30.2 44 2.6 11.1 2.8 28 .4 37-5.6 21.3-19.4 31.9-33 25.6-5.2-2.4-8.9-6.4-11.6-12.6-1.9-4.2-2.2-7-2.4-19.5-.3-16.8-1.3-21.6-8.3-36.5-4-8.6-4.7-11.1-5-17.7-.4-6.9-.1-8.2 2.4-12.8 5.4-9.9 15.9-12.8 27.3-7.5zm-77.4 18.3c25 9.1 39.7 34.7 35.1 60.9-4.3 24.8-24.5 43-49.7 45-27 2.1-51.8-16.6-57.4-43.2-1.8-8.8-1.8-13.2 0-21.8 4.4-21 18.7-36.2 39.5-42.3 7-2.1 25.1-1.3 32.5 1.4zM142.2 268.6c10.6 4.2 20.3 8.6 21.4 9.8 2 1.9 18.4 39.3 18.4 41.7 0 2.5-16.4 39.6-18.3 41.5-2.4 2.3-39.1 17.4-42.4 17.4-2.6 0-41.3-15.6-42.9-17.3C76.6 359.9 61 322.5 61 320c0-2.4 15.6-39.9 17.3-41.7.7-.6 8.4-4.1 17.2-7.7 8.8-3.5 17.6-7.1 19.5-8 1.9-.8 4.5-1.5 5.7-1.6 1.3 0 11 3.4 21.5 7.6z"/><path d="M118 267c-.9.6-1 1-.3 1 .6 0 1.5-.5 1.8-1 .8-1.2.4-1.2-1.5 0zM122.1 266.4c.2.2 1.5.9 2.9 1.5 2.4 1.1 2.4 1.1.6-.3-1.6-1.3-4.9-2.4-3.5-1.2zM109 270.5c-1.4.8-2 1.4-1.4 1.5.5 0 1.9-.7 3-1.5 2.4-1.8 1.6-1.9-1.6 0zM132.7 271.1c.7.7 1.5 1 1.8.7.3-.3-.2-.9-1.2-1.2-1.4-.6-1.5-.5-.6.5zM100.5 274c-.3.6.1.7.9.4 1.8-.7 2.1-1.4.7-1.4-.6 0-1.3.4-1.6 1zM140.7 274.1c.7.7 1.5 1 1.8.7.3-.3-.2-.9-1.2-1.2-1.4-.6-1.5-.5-.6.5zM149 277.5c1.4.8 3 1.4 3.5 1.4.6 0-.1-.6-1.5-1.4-1.4-.8-2.9-1.4-3.5-1.4-.5 0 .1.6 1.5 1.4zM82.4 281.6c-1.8 1.4-1.8 1.5.4.4 1.2-.6 2.2-1.3 2.2-1.5 0-.8-.5-.6-2.6 1.1zM161 284.9c0 .6.4 1.3 1 1.6.6.3.7-.1.4-.9-.7-1.8-1.4-2.1-1.4-.7zM78.5 289.1c-.4.6-.5 1.2-.2 1.5.2.3.7-.2 1-1.1.7-1.7.1-2-.8-.4zM163 288.9c0 .6.4 1.3 1 1.6.6.3.7-.1.4-.9-.7-1.8-1.4-2.1-1.4-.7zM113.7 294c-8 1.4-16.1 8.7-18.7 16.8-3.2 10.2-.9 21.2 6 28 6.1 6.1 11.4 8.2 20.3 8.2 10.1 0 17.3-3.5 22.7-11 4.1-5.6 4.7-8 4.5-17-.1-7.9-.4-8.9-3.6-14-6.1-9.5-17.2-13.4-31.2-11zm16.9 2.6c9.9 4.1 16.6 13.6 16.6 23.3 0 10-8 21.2-17 23.9-4.8 1.5-12.5 1.5-17.3.2-4.9-1.4-12.2-8-14.8-13.3-2.3-4.7-2.8-12.8-1.1-18.8 1.4-5.1 7.6-11.8 13.4-14.5 6.1-2.8 14.5-3.2 20.2-.8zM165.1 293.5c0 .5.6 2.1 1.4 3.5.8 1.4 1.4 2 1.4 1.5 0-.6-.6-2.1-1.4-3.5-.8-1.4-1.4-2.1-1.4-1.5zM73.6 300.7c-.6 1.4-.5 1.5.5.6.7-.7 1-1.5.7-1.8-.3-.3-.9.2-1.2 1.2zM70.7 307.5c-.9 1.9-1.5 3.5-1.2 3.5.7 0 3.7-6.1 3.3-6.6-.3-.2-1.2 1.2-2.1 3.1zM173 312.9c0 .6.4 1.3 1 1.6.6.3.7-.1.4-.9-.7-1.8-1.4-2.1-1.4-.7zM66.6 317.5c-.3.9-.6 2.4-.5 3.3 0 .9.5.4 1-1.2.9-3.2.6-4.8-.5-2.1zM67 324c0 .5.5 1 1.1 1 .5 0 .7-.5.4-1-.3-.6-.8-1-1.1-1-.2 0-.4.4-.4 1zM173 327c-.6 1.1-.8 2-.6 2 .3 0 1-.9 1.6-2 .6-1.1.8-2 .6-2-.3 0-1 .9-1.6 2zM69 328.4c0 1.1 3 6.6 3.6 6.6.2 0-.3-1.5-1.2-3.3-1.9-3.6-2.4-4.4-2.4-3.3zM72.6 337.3c.3 1 .9 1.5 1.2 1.2.3-.3 0-1.1-.7-1.8-1-.9-1.1-.8-.5.6zM168.5 337c-.3.5-.1 1 .4 1 .6 0 1.1-.5 1.1-1 0-.6-.2-1-.4-1-.3 0-.8.4-1.1 1zM74.6 341.3c.3 1 .9 1.5 1.2 1.2.3-.3 0-1.1-.7-1.8-1-.9-1.1-.8-.5.6zM165.5 345.1c-.4.6-.5 1.2-.2 1.5.2.3.7-.2 1-1.1.7-1.7.1-2-.8-.4zM78 350c.6 1.1 1.3 2 1.6 2 .2 0 0-.9-.6-2s-1.3-2-1.6-2c-.2 0 0 .9.6 2zM81 357.5c0 .7 6.1 3.7 6.6 3.3.2-.3-1.2-1.2-3.1-2.1-1.9-.9-3.5-1.5-3.5-1.2zM158.4 358.6c-1.8 1.4-1.8 1.5.4.4 1.2-.6 2.2-1.3 2.2-1.5 0-.8-.5-.6-2.6 1.1zM92.1 362.4c.2.2 1.5.9 2.9 1.5 2.4 1.1 2.4 1.1.6-.3-1.6-1.3-4.9-2.4-3.5-1.2zM102 366.4c0 .2.7.7 1.6 1 .8.3 1.2.2.9-.4-.6-1-2.5-1.4-2.5-.6zM138 367c-.8.5-1 1-.5 1 .6 0 1.7-.5 2.5-1s1.1-1 .5-1c-.5 0-1.7.5-2.5 1zM128.5 371c-.3.6.1.7.9.4 1.8-.7 2.1-1.4.7-1.4-.6 0-1.3.4-1.6 1zM118.8 373.2c.6.6 1.8.8 2.8.6 1.4-.3 1.2-.5-.9-1-1.9-.3-2.5-.2-1.9.4z"/></svg>